HIERARCHY
ROOT Hips
{
    OFFSET 0.000000 0.000000 0.000000
    CHANNELS 6 Xposition Yposition Zposition Zrotation Xrotation Yrotation
    JOINT Spine
    {
        OFFSET -0.000000 7.761268 0.000000
        CHANNELS 3 Zrotation Xrotation Yrotation
        JOINT Spine1
        {
            OFFSET -0.000000 24.785763 0.000000
            CHANNELS 3 Zrotation Xrotation Yrotation
            JOINT Neck
            {
                OFFSET -0.000000 24.683973 2.243998
                CHANNELS 3 Zrotation Xrotation Yrotation
                JOINT Head
                {
                    OFFSET -0.000000 13.250945 -1.892992
                    CHANNELS 3 Zrotation Xrotation Yrotation
                    End Site
                    {
                        OFFSET -0.000000 23.662401 0.000000
                    }
                }
            }
            JOINT LeftShoulder
            {
                OFFSET 3.794134 23.444212 -0.177979
                CHANNELS 3 Zrotation Xrotation Yrotation
                JOINT LeftArm
                {
                    OFFSET 9.211075 0.000000 0.000000
                    CHANNELS 3 Zrotation Xrotation Yrotation
                    JOINT LeftForeArm
                    {
                        OFFSET 34.352840 0.000000 0.000000
                        CHANNELS 3 Zrotation Xrotation Yrotation
                        JOINT LeftHand
                        {
                            OFFSET 25.460636 0.000000 0.000000
                            CHANNELS 3 Zrotation Xrotation Yrotation
                            End Site
                            {
                                OFFSET 14.197442 0.000000 0.000000
                            }
                        }
                    }
                }
            }
            JOINT RightShoulder
            {
                OFFSET -3.767389 23.444212 -0.177979
                CHANNELS 3 Zrotation Xrotation Yrotation
                JOINT RightArm
                {
                    OFFSET -9.211075 0.000000 0.000000
                    CHANNELS 3 Zrotation Xrotation Yrotation
                    JOINT RightForeArm
                    {
                        OFFSET -34.352840 0.000000 0.000000
                        CHANNELS 3 Zrotation Xrotation Yrotation
                        JOINT RightHand
                        {
                            OFFSET -25.460636 0.000000 0.000000
                            CHANNELS 3 Zrotation Xrotation Yrotation
                            End Site
                            {
                                OFFSET -14.197442 0.000000 0.000000
                            }
                        }
                    }
                }
            }
        }
    }
    JOINT LeftUpLeg
    {
        OFFSET 9.464960 0.000000 0.000000
        CHANNELS 3 Zrotation Xrotation Yrotation
        JOINT LeftLeg
        {
            OFFSET -0.000000 -36.073700 0.000000
            CHANNELS 3 Zrotation Xrotation Yrotation
            JOINT LeftFoot
            {
                OFFSET -0.000000 -40.808823 0.000000
                CHANNELS 3 Zrotation Xrotation Yrotation
                JOINT LeftToeBase
                {
                    OFFSET -0.000000 -6.152224 14.197442
                    CHANNELS 3 Zrotation Xrotation Yrotation
                    End Site
                    {
                        OFFSET -0.000000 0.000000 3.785984
                    }
                }
            }
        }
    }
    JOINT RightUpLeg
    {
        OFFSET -9.464960 0.000000 0.000000
        CHANNELS 3 Zrotation Xrotation Yrotation
        JOINT RightLeg
        {
            OFFSET -0.000000 -36.073700 0.000000
            CHANNELS 3 Zrotation Xrotation Yrotation
            JOINT RightFoot
            {
                OFFSET -0.000000 -40.808823 0.000000
                CHANNELS 3 Zrotation Xrotation Yrotation
                JOINT RightToeBase
                {
                    OFFSET -0.000000 -6.152224 14.197442
                    CHANNELS 3 Zrotation Xrotation Yrotation
                    End Site
                    {
                        OFFSET -0.000000 0.000000 3.785984
                    }
                }
            }
        }
    }
}
MOTION
Frames:    8
Frame Time:    0.004000
-29.457361    77.976700    -210.976334    0.598009    -2.153911    9.999608    -0.013968    -0.852211    1.142305    0.137120    -3.161451    1.146161    0.281663    15.897079    -0.808729    1.531638    6.272799    -0.707040    11.747738    0.086978    -4.417748    -11.438593    -0.484675    -1.938339    2.432575    -1.074210    -1.891731    -6.358915    -1.115074    1.457517    -14.872610    -3.000189    -2.662833    15.779560    -1.177198    -2.555977    -4.396159    -0.876562    -0.399233    -0.407948    -0.893427    0.430559    -3.011105    7.713495    -0.909171    1.086472    -1.434953    -2.589805    5.883450    -5.346349    11.588225    0.000000    0.000000    0.000000    1.286795    13.194511    -3.208837    1.054265    -11.935331    -1.191397    -5.292295    -1.747794    -18.034109    0.000000    0.000000    0.000000    
-29.455626    77.977524    -210.962860    0.606544    -2.166857    9.995706    -0.018662    -0.845750    1.142786    0.141066    -3.161268    1.146854    0.266052    15.877647    -0.810962    1.576013    6.337229    -0.706341    11.744557    0.086475    -4.430886    -11.448573    -0.465550    -1.932773    2.437325    -1.070649    -1.883220    -6.343560    -1.110408    1.440904    -14.877053    -3.007590    -2.650500    15.789361    -1.167046    -2.566069    -4.411888    -0.876129    -0.397663    -0.349143    -0.892807    0.439747    -3.015581    7.744701    -0.891136    1.082200    -1.428453    -2.624674    5.806060    -5.359135    11.619830    0.000000    0.000000    0.000000    1.282595    13.222108    -3.194115    1.050951    -11.938818    -1.190549    -5.337127    -1.740310    -18.051607    0.000000    0.000000    0.000000    
-29.453033    77.976707    -210.957581    0.605699    -2.147933    10.010712    -0.022319    -0.864923    1.133297    0.158451    -3.168822    1.137865    0.256158    15.914270    -0.820081    1.583938    6.304233    -0.714550    11.714185    0.097794    -4.430387    -11.438092    -0.449407    -1.944841    2.431378    -1.059045    -1.867419    -6.308720    -1.096215    1.393179    -14.880196    -3.003417    -2.657323    15.779638    -1.180652    -2.541000    -4.410600    -0.860090    -0.411723    -0.337437    -0.877206    0.436367    -3.018175    7.741276    -0.918532    1.090759    -1.458028    -2.604943    5.764950    -5.340972    11.598829    0.000000    0.000000    0.000000    1.285665    13.213842    -3.213907    1.044280    -11.945216    -1.182303    -5.376585    -1.740976    -18.028187    0.000000    0.000000    0.000000    
-29.453093    77.973351    -210.953430    0.597992    -2.129059    10.018921    -0.013043    -0.878524    1.128174    0.156048    -3.184024    1.132596    0.285865    15.928524    -0.831161    1.556270    6.306040    -0.728561    11.712872    0.096271    -4.446443    -11.447563    -0.415033    -1.935418    2.435384    -1.064286    -1.863244    -6.290720    -1.100294    1.376143    -14.879910    -3.003705    -2.649795    15.782221    -1.192061    -2.541242    -4.412861    -0.839373    -0.415366    -0.299593    -0.856519    0.431776    -3.014726    7.726981    -0.909968    1.091225    -1.465860    -2.584155    5.794730    -5.364427    11.568379    0.000000    0.000000    0.000000    1.292649    13.205498    -3.221800    1.040014    -11.961190    -1.163343    -5.374693    -1.746010    -18.051903    0.000000    0.000000    0.000000    
-29.452646    77.974579    -210.947174    0.593478    -2.111791    10.017420    -0.011936    -0.899280    1.127963    0.163602    -3.190377    1.132628    0.292605    15.930490    -0.832618    1.560571    6.333440    -0.730129    11.737429    0.096706    -4.488203    -11.482043    -0.503098    -1.900763    2.412091    -1.021844    -1.861200    -6.249522    -1.057988    1.378913    -14.884235    -3.007841    -2.630703    15.789790    -1.167015    -2.556885    -4.416759    -0.839775    -0.416209    -0.307878    -0.857022    0.430462    -3.018266    7.726102    -0.873259    1.098351    -1.479923    -2.572838    5.803563    -5.362508    11.529458    0.000000    0.000000    0.000000    1.297643    13.196392    -3.197017    1.034884    -11.966580    -1.197502    -5.344793    -1.738160    -18.044729    0.000000    0.000000    0.000000    
-29.447016    77.975227    -210.939407    0.603436    -2.104388    10.025534    -0.010973    -0.906756    1.122840    0.153916    -3.199360    1.127216    0.288570    15.952851    -0.837496    1.589988    6.333711    -0.732520    11.697380    0.117826    -4.463139    -11.447572    -0.415056    -1.944759    2.428977    -1.062108    -1.848681    -6.256298    -1.097795    1.370487    -14.874871    -3.012492    -2.625607    15.772458    -1.241279    -2.541427    -4.392343    -0.790610    -0.438199    -0.341590    -0.808719    0.426445    -3.044043    7.744429    -0.878056    1.117259    -1.518022    -2.467665    5.753596    -5.349298    11.434127    0.000000    0.000000    0.000000    1.287002    13.202857    -3.219806    1.038721    -11.979300    -1.225650    -5.340946    -1.733105    -18.015732    0.000000    0.000000    0.000000    
-29.446611    77.974579    -210.931427    0.604146    -2.095288    10.026475    -0.027445    -0.929013    1.125838    0.196741    -3.212122    1.131609    0.272839    16.033514    -0.847950    1.592799    6.290605    -0.742334    11.604867    -0.081601    -4.606935    -11.402030    -0.269224    -1.769730    2.410637    -1.025489    -1.858307    -6.229130    -1.061280    1.375781    -14.883536    -3.013575    -2.583955    15.763964    -1.276066    -2.572165    -4.396996    -0.760209    -0.451244    -0.338863    -0.778812    0.420509    -3.042406    7.748919    -0.881070    1.122127    -1.528848    -2.587902    5.719707    -5.346155    11.535255    0.000000    0.000000    0.000000    1.287529    13.206980    -3.228255    1.030457    -11.989940    -1.192997    -5.305645    -1.739788    -18.038643    0.000000    0.000000    0.000000    
-29.444622    77.973259    -210.925003    0.600847    -2.088166    10.030827    -0.022440    -0.934084    1.124877    0.204903    -3.224000    1.130830    0.266884    16.055546    -0.856465    1.600938    6.281883    -0.750287    11.587087    -0.081587    -4.622116    -11.402822    -0.237400    -1.768879    2.421888    -1.041915    -1.856595    -6.255330    -1.079261    1.400247    -14.898393    -2.988825    -2.569807    15.775218    -1.306146    -2.579726    -4.392369    -0.752724    -0.450711    -0.346242    -0.771363    0.436402    -3.043296    7.755969    -0.884320    1.120591    -1.541398    -2.538148    5.770072    -5.344977    11.500523    0.000000    0.000000    0.000000    1.288527    13.216301    -3.212253    1.030970    -12.013209    -1.205763    -5.288549    -1.736629    -18.048277    0.000000    0.000000    0.000000    
